<svg xmlns="http://www.w3.org/2000/svg" viewBox="0 0 800 260.87"><defs><style>.cls-1{fill:#20bfe1;}.cls-2{fill:#425072;}</style></defs><title>Asset 1</title><g id="Layer_2" data-name="Layer 2"><g id="Layer_1-2" data-name="Layer 1"><path class="cls-1" d="M237.59,60.37a16,16,0,0,0-14.8-17c-.33,0-.65,0-1,0,0,0-.05-.11-.07-.17C210.62,16.72,194,1.44,174.94.1s-37.65,11.46-52.37,36.05a162.69,162.69,0,0,0-14.14,31.21,162,162,0,0,0-30-16.43c-26.55-10.81-49.11-9.87-63.53,2.66S-3.66,88.32,3.33,116.11C10,142.62,26,171.46,48.48,197.32s48.77,45.78,74.08,56.09c10.42,4.24,20.23,6.68,29.18,7.31a60.73,60.73,0,0,0,11-.22,40.44,40.44,0,0,0,10.31-2.33,39.67,39.67,0,0,0,7.35-3.4c10.37-5.9,20.11-16.12,28.56-30.24,14-23.45,23.08-55.18,25.49-89.35a231.46,231.46,0,0,0-3.8-62.75A15.92,15.92,0,0,0,237.59,60.37ZM56.79,190.11C35.44,165.52,20.24,138.29,14,113.43c-5.92-23.57-3.05-41.87,8.08-51.54,6.5-5.64,15.51-8.08,26.36-7.32,7.75.55,16.43,2.73,25.81,6.54A154.67,154.67,0,0,1,105,78.38a240.69,240.69,0,0,0-8,47.12c-2.4,34.17,2.11,66.86,12.72,92.05a97.92,97.92,0,0,0,14.48,24.63C101.28,232.24,77.41,213.85,56.79,190.11Zm122.08,52.33a27.47,27.47,0,0,1-3.5,2.55,37.36,37.36,0,0,1-6.72,3.1c-.6.19-1.21.37-1.83.53l-.52.15c-.91.22-1.83.41-2.78.56l-.16,0c-.36.06-.74.09-1.1.14a27.56,27.56,0,0,1-4.89.11c-14.71-1-28-13.94-37.43-36.33-10-23.63-14.17-54.52-11.89-87a233.55,233.55,0,0,1,6.45-40.76,232.91,232.91,0,0,1,29.66,28.71C165.51,138.81,180.7,166,187,190.9,192.87,214.47,190,232.77,178.87,242.44Zm44.62-108c-2.21,31.38-10.24,60.41-22.64,82.18a98.14,98.14,0,0,0-3.23-28.36c-6.66-26.5-22.7-55.34-45.16-81.2a239.92,239.92,0,0,0-34.7-32.89A154.44,154.44,0,0,1,132,41.8C144.49,21,159.46,10,174.17,11.07S202,24.86,211.43,47A15.94,15.94,0,0,0,220,75.1,220.33,220.33,0,0,1,223.49,134.4Z"/><path class="cls-1" d="M158.74,198.68a16,16,0,1,0,14.81,17A16,16,0,0,0,158.74,198.68Z"/><path class="cls-2" d="M627.27,233.72h19.78q3.9,0,5.35-1.46c1-1,1.46-2.64,1.46-5V204.85q0-6.79-6.81-6.8h-13q-10.38,0-14.92-4.38t-4.54-14.43V107.57c0-2.38,1.3-3.56,3.89-3.56h25.3q3.88,0,5.35-1.46c1-1,1.46-2.65,1.46-5V75.14q0-6.81-6.81-6.81h-25.3c-2.59,0-3.89-1.18-3.89-3.56V34q0-6.81-6.81-6.81H580.57q-7.14,0-7.13,6.81V181.18q0,25.31,14.1,38.92T627.27,233.72Z"/><path class="cls-2" d="M552.41,165.13q-6.81-9.56-23.67-18.64L496,127q-14-7.45-13.94-14.59v-1.63q0-8.1,15.88-8.1h49.81q3.88,0,5.19-1.46t1.29-5V75.14q0-6.81-6.48-6.81H488.85q-25.62,0-37.62,10.7t-12,33.41q0,15.24,7.78,25t24.32,18.15l32.11,17.84q13.29,7.14,13.29,14.91v1.63q0,9.72-15.89,9.73H446.7q-3.9,0-5.19,1.46c-.87,1-1.3,2.65-1.3,5v20.76q0,6.81,6.49,6.81h61.61q50.91,0,50.91-43.46Q559.22,174.71,552.41,165.13Z"/><path class="cls-2" d="M374.17,68.33H363.79q-24.65,0-31.77,17.51h-1.3V75.14q0-6.81-6.81-6.81H296.35q-6.81,0-6.81,6.81V226.91q0,6.81,6.81,6.81h27.56q6.81,0,6.81-6.81V128.65q0-24.63,22.37-24.64h11.68c6.91,0,11.84,1.45,14.75,4.38s4.38,7.83,4.38,14.75V226.91q0,6.81,6.81,6.81H418q7.13,0,7.13-6.81V121.19Q425.08,68.33,374.17,68.33Z"/><path class="cls-2" d="M788,79q-12-10.69-37.62-10.7H691.5q-6.48,0-6.48,6.81V96.22q0,3.57,1.29,5t5.19,1.46h49.81c10.59,0,17.5,2.7,17.5,8.1V121.4H718q-25.62,0-39.56,13.63t-13.94,39.23v5.27c0,17.08,4.64,31.49,13.94,40.57s22.48,13.62,39.56,13.62h7.79a43.54,43.54,0,0,0,19.13-4.38,24.63,24.63,0,0,0,12.65-13.13h1.29v10.7q0,6.81,6.82,6.81h27.23c4.76,0,7.14-2.27,7.14-13.62V112.44Q800,89.75,788,79Zm-29.2,99.84c0,16.44-7.45,17.84-22.37,17.84h-12q-10.38,0-14.6-4.38t-4.21-14.75v-1.37c0-6.91,1.4-11.84,4.21-14.75s7.68-4.38,14.6-4.38h30.48c2.6,0,3.89,1.18,3.89,3.57Z"/></g></g></svg>