<svg xmlns="http://www.w3.org/2000/svg" viewBox="0 0 1600 560" role="img" aria-label="Leadership banner abstract design">
  <defs>
    <linearGradient id="bg" x1="0" y1="0" x2="1" y2="1">
      <stop offset="0" stop-color="#ffffff" />
      <stop offset="1" stop-color="#f5f5f5" />
    </linearGradient>
    <linearGradient id="band" x1="0" y1="0" x2="1" y2="0">
      <stop offset="0" stop-color="#a30000" />
      <stop offset="1" stop-color="#151515" />
    </linearGradient>
  </defs>
  <rect width="1600" height="560" fill="url(#bg)" />
  <path d="M0 560 L0 220 L640 120 L1020 270 L560 560 Z" fill="#151515" opacity="0.08" />
  <path d="M340 560 L970 70 L1600 230 L1600 560 Z" fill="url(#band)" opacity="0.9" />
  <g fill="#ffffff" opacity="0.94">
    <rect x="1040" y="90" width="460" height="6" />
    <rect x="1040" y="132" width="380" height="6" />
    <rect x="1040" y="174" width="430" height="6" />
  </g>
  <g stroke="#ffffff" stroke-width="6" opacity="0.75" fill="none">
    <path d="M1050 360 C1140 300 1240 310 1320 250" />
    <path d="M1130 400 C1230 350 1330 340 1425 290" />
  </g>
  <g fill="#ffffff" opacity="0.9">
    <circle cx="1050" cy="360" r="10" />
    <circle cx="1320" cy="250" r="10" />
    <circle cx="1130" cy="400" r="10" />
    <circle cx="1425" cy="290" r="10" />
  </g>
</svg>
