<svg xmlns="http://www.w3.org/2000/svg" viewBox="0 0 1600 560" role="img" aria-label="Scavenger hunt banner abstract design">
  <defs>
    <linearGradient id="bg" x1="0" y1="0" x2="1" y2="1">
      <stop offset="0" stop-color="#ffffff" />
      <stop offset="1" stop-color="#f5f5f5" />
    </linearGradient>
    <linearGradient id="band" x1="0" y1="0" x2="1" y2="0">
      <stop offset="0" stop-color="#ee0000" />
      <stop offset="1" stop-color="#151515" />
    </linearGradient>
  </defs>
  <rect width="1600" height="560" fill="url(#bg)" />
  <path d="M0 560 L510 170 L920 250 L530 560 Z" fill="#151515" opacity="0.08" />
  <path d="M430 560 L980 100 L1600 250 L1600 560 Z" fill="url(#band)" opacity="0.9" />
  <g fill="#ffffff" opacity="0.92" stroke="#d2d2d2" stroke-width="2">
    <rect x="120" y="84" width="130" height="130" />
    <rect x="270" y="84" width="130" height="130" />
    <rect x="420" y="84" width="130" height="130" />
    <rect x="570" y="84" width="130" height="130" />
    <rect x="720" y="84" width="130" height="130" />
    <rect x="120" y="234" width="130" height="130" />
    <rect x="270" y="234" width="130" height="130" />
    <rect x="420" y="234" width="130" height="130" />
    <rect x="570" y="234" width="130" height="130" />
    <rect x="720" y="234" width="130" height="130" />
  </g>
  <path d="M174 150 l24 24 l46 -54" fill="none" stroke="#ee0000" stroke-width="9" stroke-linecap="round" stroke-linejoin="round" />
  <path d="M328 300 l24 24 l46 -54" fill="none" stroke="#ee0000" stroke-width="9" stroke-linecap="round" stroke-linejoin="round" />
  <path d="M628 150 l24 24 l46 -54" fill="none" stroke="#ee0000" stroke-width="9" stroke-linecap="round" stroke-linejoin="round" />
</svg>
