<svg xmlns="http://www.w3.org/2000/svg" viewBox="0 0 242.48 99"><defs><style>.cls-1{fill:#20bfe1;}.cls-2{fill:#425072;}</style></defs><title>Asset 2</title><g id="Layer_2" data-name="Layer 2"><g id="Layer_1-2" data-name="Layer 1"><path class="cls-1" d="M72,18.3a4.85,4.85,0,0,0-4.49-5.17h-.3l0,0C63.84,5.07,58.8.44,53,0S41.61,3.5,37.15,11a49.21,49.21,0,0,0-4.28,9.46,48.58,48.58,0,0,0-9.11-5c-8-3.28-14.88-3-19.26.8S-1.11,26.77,1,35.19C3,43.23,7.89,52,14.7,59.81s14.78,13.87,22.45,17A29.27,29.27,0,0,0,46,79,18.42,18.42,0,0,0,49.33,79a12.4,12.4,0,0,0,3.13-.7,12.14,12.14,0,0,0,2.22-1c3.15-1.79,6.1-4.89,8.66-9.17,4.25-7.1,7-16.72,7.72-27.08a69.47,69.47,0,0,0-1.15-19A4.83,4.83,0,0,0,72,18.3ZM17.21,57.62c-6.47-7.45-11.07-15.7-13-23.24-1.79-7.14-.92-12.69,2.45-15.62,2-1.71,4.7-2.45,8-2.22a26.18,26.18,0,0,1,7.82,2,46.52,46.52,0,0,1,9.34,5.24A72.29,72.29,0,0,0,29.43,38c-.73,10.36.64,20.26,3.85,27.9a29.62,29.62,0,0,0,4.39,7.46C30.7,70.39,23.46,64.82,17.21,57.62Zm37,15.86a7.45,7.45,0,0,1-1.07.77,10.55,10.55,0,0,1-2,.94l-.56.17-.16,0c-.27.07-.55.12-.84.17h-.05l-.33,0a9.15,9.15,0,0,1-1.48,0c-4.46-.32-8.49-4.23-11.35-11-3-7.16-4.29-16.52-3.6-26.37a70.79,70.79,0,0,1,2-12.35,70.49,70.49,0,0,1,9,8.7c6.48,7.45,11.08,15.71,13,23.24C58.46,65,57.59,70.55,54.22,73.48ZM67.74,40.74c-.67,9.51-3.1,18.31-6.86,24.9a29.94,29.94,0,0,0-1-8.59c-2-8-6.88-16.78-13.69-24.61a72.68,72.68,0,0,0-10.52-10A47.08,47.08,0,0,1,40,12.67C43.79,6.35,48.33,3,52.79,3.35s8.44,4.19,11.29,10.9a4.83,4.83,0,0,0,2.6,8.51A66.67,66.67,0,0,1,67.74,40.74Z"/><path class="cls-1" d="M48.12,60.22a4.84,4.84,0,1,0,4.48,5.17A4.84,4.84,0,0,0,48.12,60.22Z"/><path class="cls-2" d="M190.12,77.57h6a2.29,2.29,0,0,0,1.62-.44,2.09,2.09,0,0,0,.44-1.52V68.82a1.82,1.82,0,0,0-2.06-2.06h-3.93c-2.1,0-3.61-.44-4.52-1.33s-1.38-2.34-1.38-4.37V39.34c0-.72.39-1.08,1.18-1.08h7.67a2.27,2.27,0,0,0,1.62-.45,2.12,2.12,0,0,0,.44-1.52V29.51a1.83,1.83,0,0,0-2.06-2.07h-7.67c-.79,0-1.18-.35-1.18-1.08V17A1.83,1.83,0,0,0,184.23,15H176q-2.16,0-2.16,2.07V61.65q0,7.67,4.27,11.79T190.12,77.57Z"/><path class="cls-2" d="M167.44,56.78q-2.07-2.89-7.18-5.65l-9.93-5.9c-2.81-1.5-4.22-3-4.22-4.42v-.49q0-2.46,4.81-2.46H166a2.06,2.06,0,0,0,1.57-.44,2.29,2.29,0,0,0,.4-1.52V29.51c0-1.38-.66-2.07-2-2.07H148.17q-7.77,0-11.4,3.25t-3.64,10.12a11.77,11.77,0,0,0,2.36,7.57,22.12,22.12,0,0,0,7.37,5.5l9.73,5.41q4,2.16,4,4.52v.49q0,3-4.81,3H135.39a2.12,2.12,0,0,0-1.57.44,2.34,2.34,0,0,0-.39,1.53v6.29c0,1.37.65,2.06,2,2.06h18.68q15.42,0,15.43-13.17A12.93,12.93,0,0,0,167.44,56.78Z"/><path class="cls-2" d="M113.41,27.44h-3.14q-7.47,0-9.64,5.31h-.39V29.51a1.83,1.83,0,0,0-2.06-2.07H89.82a1.83,1.83,0,0,0-2.06,2.07v46a1.82,1.82,0,0,0,2.06,2.06h8.36a1.82,1.82,0,0,0,2.06-2.06V45.73q0-7.47,6.78-7.47h3.54q3.15,0,4.47,1.32c.89.89,1.33,2.38,1.33,4.47V75.51a1.82,1.82,0,0,0,2.06,2.06h8.26c1.44,0,2.16-.69,2.16-2.06V43.46Q128.84,27.44,113.41,27.44Z"/><path class="cls-2" d="M238.84,30.69q-3.63-3.24-11.4-3.25H209.59c-1.31,0-2,.69-2,2.07V35.9a2.29,2.29,0,0,0,.39,1.52,2.07,2.07,0,0,0,1.57.44h15.1c3.21,0,5.31.82,5.31,2.46v3.21H217.61q-7.77,0-12,4.13t-4.23,11.89v1.6c0,5.17,1.41,9.54,4.23,12.29s6.81,4.13,12,4.13H220a13.14,13.14,0,0,0,5.8-1.33,7.44,7.44,0,0,0,3.83-4h.4v3.25a1.82,1.82,0,0,0,2.06,2.06h8.26c1.44,0,2.16-.69,2.16-4.13V40.81Q242.48,33.94,238.84,30.69ZM230,61c0,5-2.26,5.4-6.79,5.4h-3.63c-2.1,0-3.57-.44-4.43-1.32s-1.27-2.38-1.27-4.47v-.42c0-2.1.42-3.59,1.27-4.47s2.33-1.33,4.43-1.33h9.24c.78,0,1.18.36,1.18,1.08Z"/><path class="cls-2" d="M6.79,86.34H5.49a.29.29,0,0,0-.33.33v5.82H5.1L1.94,86.56a.45.45,0,0,0-.44-.22H.33a.29.29,0,0,0-.33.33v9.4a.29.29,0,0,0,.33.33h1.3A.29.29,0,0,0,2,96.07v-5.8H2l3.13,5.82a.51.51,0,0,0,.5.31H6.79a.29.29,0,0,0,.33-.33v-9.4A.29.29,0,0,0,6.79,86.34Z"/><path class="cls-2" d="M20.48,94.68h-.62a1,1,0,0,1-.72-.21.92.92,0,0,1-.22-.7V90.32c0-.12.06-.17.19-.17h1.22a.32.32,0,0,0,.25-.08.3.3,0,0,0,.08-.24V88.75a.29.29,0,0,0-.33-.33H19.11c-.13,0-.19,0-.19-.17V86.77a.29.29,0,0,0-.33-.33H17.28c-.23,0-.35.11-.35.33v1.48a.15.15,0,0,1-.17.17h-.63a.29.29,0,0,0-.32.33v1.08c0,.13,0,.21.07.25a.37.37,0,0,0,.25.07h.63a.15.15,0,0,1,.17.17v3.55a2.52,2.52,0,0,0,.68,1.88,2.69,2.69,0,0,0,1.92.65h.95a.35.35,0,0,0,.26-.07.31.31,0,0,0,.07-.24V95A.29.29,0,0,0,20.48,94.68Z"/><path class="cls-2" d="M23.86,85.41H22.5a.27.27,0,0,0-.31.31v1.36a.27.27,0,0,0,.31.31h1.36a.28.28,0,0,0,.32-.31V85.7C24.18,85.5,24.07,85.41,23.86,85.41Z"/><path class="cls-2" d="M23.85,88.42H22.5c-.21,0-.31.11-.31.33v7.32a.29.29,0,0,0,.33.33h1.34a.27.27,0,0,0,.32-.33V88.75A.29.29,0,0,0,23.85,88.42Z"/><path class="cls-2" d="M29.79,88.42H28.4a2.62,2.62,0,0,0-1.91.66A2.52,2.52,0,0,0,25.82,91v2.88a2.53,2.53,0,0,0,.67,1.9,2.66,2.66,0,0,0,1.91.65h1.39a2.6,2.6,0,0,0,1.9-.66,2.49,2.49,0,0,0,.68-1.89V91a2.48,2.48,0,0,0-.68-1.88A2.6,2.6,0,0,0,29.79,88.42Zm.63,5.37a.94.94,0,0,1-.21.7,1,1,0,0,1-.72.21H28.7a1,1,0,0,1-.71-.21,1,1,0,0,1-.2-.7V91a.75.75,0,0,1,.91-.91h.79a1.05,1.05,0,0,1,.72.2,1,1,0,0,1,.21.71Z"/><path class="cls-2" d="M38,88.42h-.5a1.47,1.47,0,0,0-1.53.85h-.07v-.52a.29.29,0,0,0-.33-.33H34.27a.29.29,0,0,0-.33.33v7.32a.29.29,0,0,0,.33.33h1.32a.29.29,0,0,0,.33-.33V91.33c0-.79.36-1.18,1.08-1.18h.57a1,1,0,0,1,.71.21,1,1,0,0,1,.21.71v5a.29.29,0,0,0,.33.33h1.31c.23,0,.35-.11.35-.33V91Q40.48,88.42,38,88.42Z"/><rect class="cls-2" x="50.07" y="85.41" width="1.99" height="11" rx="0.33"/><path class="cls-2" d="M62.82,90.93a7.94,7.94,0,0,0-2.36-.53c-.86-.08-1.29-.36-1.29-.85v-.3a1.41,1.41,0,0,1,.23-.94,1.19,1.19,0,0,1,.87-.25h.61a1.33,1.33,0,0,1,.86.22,1.18,1.18,0,0,1,.23.83v.1c0,.22.11.32.33.32h1.33c.22,0,.33-.1.33-.32v-.3A2.52,2.52,0,0,0,63.27,87a2.63,2.63,0,0,0-1.92-.68H59.78a2.62,2.62,0,0,0-1.91.68,2.56,2.56,0,0,0-.68,1.89v.55a3.17,3.17,0,0,0,.36,1.59,1.85,1.85,0,0,0,.92.82,7.78,7.78,0,0,0,1.18.35,9.44,9.44,0,0,0,1.18.18,2,2,0,0,1,.92.29.78.78,0,0,1,.36.69v.19A.9.9,0,0,1,61,94.68h-.74a1.27,1.27,0,0,1-.86-.22,1.1,1.1,0,0,1-.23-.81v-.13a.29.29,0,0,0-.33-.32H57.53a.29.29,0,0,0-.33.32v.32a2.52,2.52,0,0,0,.69,1.89,2.6,2.6,0,0,0,1.91.67h1.7a2.6,2.6,0,0,0,1.91-.67,2.52,2.52,0,0,0,.69-1.89v-.53a2.92,2.92,0,0,0-.37-1.55A2,2,0,0,0,62.82,90.93Z"/><path class="cls-2" d="M70.48,88.42H68.15a2.62,2.62,0,0,0-1.91.66A2.56,2.56,0,0,0,65.57,91v2.88a2.57,2.57,0,0,0,.67,1.9,2.66,2.66,0,0,0,1.91.65h2.33a.35.35,0,0,0,.26-.07.31.31,0,0,0,.07-.24V95a.29.29,0,0,0-.33-.33h-2a1,1,0,0,1-.7-.21,1,1,0,0,1-.21-.71V91.07a1,1,0,0,1,.21-.71,1,1,0,0,1,.7-.21h2a.35.35,0,0,0,.26-.08.3.3,0,0,0,.07-.24V88.75A.29.29,0,0,0,70.48,88.42Z"/><path class="cls-2" d="M73.89,88.42H72.55c-.21,0-.31.11-.31.33v7.32c0,.22.1.33.32.33h1.35a.38.38,0,0,0,.24-.06s.07-.13.07-.27V88.75A.29.29,0,0,0,73.89,88.42Z"/><path class="cls-2" d="M73.91,85.41H72.55a.27.27,0,0,0-.31.31v1.36a.27.27,0,0,0,.31.31h1.36a.27.27,0,0,0,.31-.31V85.7C74.22,85.5,74.12,85.41,73.91,85.41Z"/><path class="cls-2" d="M79.68,88.42H78.45a2.61,2.61,0,0,0-1.91.66A2.53,2.53,0,0,0,75.86,91v2.88a2.54,2.54,0,0,0,.68,1.9,2.65,2.65,0,0,0,1.91.65H81.9a.35.35,0,0,0,.26-.07.31.31,0,0,0,.07-.24v-1c0-.23-.11-.35-.33-.35H78.74A1,1,0,0,1,78,94.5a1,1,0,0,1-.21-.69v-.35c0-.11.06-.17.19-.17h3.92a.29.29,0,0,0,.33-.33V91a2.52,2.52,0,0,0-.67-1.89A2.61,2.61,0,0,0,79.68,88.42Zm.63,3.37a.15.15,0,0,1-.17.17H78a.15.15,0,0,1-.17-.17V91a1,1,0,0,1,.2-.71,1,1,0,0,1,.7-.2h.66a1,1,0,0,1,.7.2,1,1,0,0,1,.21.71Z"/><path class="cls-2" d="M87.83,88.42h-.5a1.47,1.47,0,0,0-1.53.85h-.06v-.52a.29.29,0,0,0-.33-.33H84.08a.29.29,0,0,0-.33.33v7.32a.29.29,0,0,0,.33.33h1.33a.29.29,0,0,0,.33-.33V91.33c0-.79.36-1.18,1.08-1.18h.56a1,1,0,0,1,.71.21,1,1,0,0,1,.21.71v5a.29.29,0,0,0,.33.33h1.31c.23,0,.35-.11.35-.33V91Q90.29,88.42,87.83,88.42Z"/><path class="cls-2" d="M96.69,88.42H94.36a2.61,2.61,0,0,0-1.91.66A2.53,2.53,0,0,0,91.77,91v2.88a2.54,2.54,0,0,0,.68,1.9,2.65,2.65,0,0,0,1.91.65h2.33a.37.37,0,0,0,.26-.07.36.36,0,0,0,.07-.24V95a.29.29,0,0,0-.33-.33h-2a1,1,0,0,1-.7-.21,1,1,0,0,1-.21-.71V91.07a.77.77,0,0,1,.91-.92h2a.37.37,0,0,0,.26-.08.34.34,0,0,0,.07-.24V88.75A.29.29,0,0,0,96.69,88.42Z"/><path class="cls-2" d="M102,88.42h-1.23a2.61,2.61,0,0,0-1.91.66A2.53,2.53,0,0,0,98.2,91v2.88a2.54,2.54,0,0,0,.68,1.9,2.65,2.65,0,0,0,1.91.65h3.45a.35.35,0,0,0,.26-.07.31.31,0,0,0,.07-.24v-1c0-.23-.11-.35-.33-.35h-3.16a1,1,0,0,1-.71-.21,1,1,0,0,1-.21-.69v-.35c0-.11.06-.17.19-.17h3.92a.29.29,0,0,0,.33-.33V91a2.52,2.52,0,0,0-.67-1.89A2.61,2.61,0,0,0,102,88.42Zm.63,3.37a.15.15,0,0,1-.17.17h-2.13a.15.15,0,0,1-.17-.17V91a1,1,0,0,1,.2-.71,1,1,0,0,1,.7-.2h.66a1,1,0,0,1,.7.2,1,1,0,0,1,.21.71Z"/><path class="cls-2" d="M115.1,86.34h-5.91a.29.29,0,0,0-.33.33v1.07c0,.22.11.32.33.32H111c.11,0,.17.06.17.18v7.83c0,.22.12.33.35.33h1.31a.29.29,0,0,0,.33-.33V88.24c0-.12.06-.18.19-.18h1.78c.22,0,.33-.1.33-.32V86.67A.29.29,0,0,0,115.1,86.34Z"/><path class="cls-2" d="M119.89,88.42h-1.24a2.62,2.62,0,0,0-1.91.66,2.56,2.56,0,0,0-.67,1.89v2.88a2.57,2.57,0,0,0,.67,1.9,2.66,2.66,0,0,0,1.91.65h3.46a.35.35,0,0,0,.26-.07.31.31,0,0,0,.07-.24v-1c0-.23-.11-.35-.33-.35H119a1,1,0,0,1-.71-.21,1,1,0,0,1-.21-.69v-.35c0-.11.06-.17.19-.17h3.92a.29.29,0,0,0,.33-.33V91a2.52,2.52,0,0,0-.67-1.89A2.62,2.62,0,0,0,119.89,88.42Zm.62,3.37a.15.15,0,0,1-.17.17h-2.12c-.12,0-.18-.06-.18-.17V91a1,1,0,0,1,.21-.71,1,1,0,0,1,.7-.2h.66a1,1,0,0,1,.7.2,1,1,0,0,1,.2.71Z"/><path class="cls-2" d="M136.54,88.42h-2.33a2.61,2.61,0,0,0-1.91.66,2.53,2.53,0,0,0-.68,1.89v2.88a2.54,2.54,0,0,0,.68,1.9,2.65,2.65,0,0,0,1.91.65h2.33a.33.33,0,0,0,.25-.07.31.31,0,0,0,.08-.24V95a.29.29,0,0,0-.33-.33h-2a1,1,0,0,1-.7-.21,1,1,0,0,1-.21-.71V91.07a.77.77,0,0,1,.91-.92h2a.32.32,0,0,0,.25-.08.3.3,0,0,0,.08-.24V88.75A.29.29,0,0,0,136.54,88.42Z"/><path class="cls-2" d="M142.29,88.42h-.5a1.47,1.47,0,0,0-1.53.85h-.06V85.73c0-.22-.11-.32-.33-.32h-1.33c-.22,0-.33.1-.33.32V96.07a.29.29,0,0,0,.33.33h1.33a.29.29,0,0,0,.33-.33V91.33c0-.79.36-1.18,1.08-1.18h.56a1,1,0,0,1,.71.21,1,1,0,0,1,.21.71v5a.29.29,0,0,0,.33.33h1.32c.23,0,.34-.11.34-.33V91Q144.75,88.42,142.29,88.42Z"/><path class="cls-2" d="M148.13,88.42h-1.35c-.2,0-.31.11-.31.33v7.32a.29.29,0,0,0,.33.33h1.34a.26.26,0,0,0,.32-.33V88.75A.29.29,0,0,0,148.13,88.42Z"/><path class="cls-2" d="M148.14,85.41h-1.36a.28.28,0,0,0-.31.31v1.36a.28.28,0,0,0,.31.31h1.36a.28.28,0,0,0,.32-.31V85.7C148.46,85.5,148.35,85.41,148.14,85.41Z"/><path class="cls-2" d="M154.34,88.42h-.5a1.47,1.47,0,0,0-1.53.85h-.07v-.52a.29.29,0,0,0-.33-.33h-1.32a.29.29,0,0,0-.33.33v7.32a.29.29,0,0,0,.33.33h1.32a.29.29,0,0,0,.33-.33V91.33c0-.79.36-1.18,1.08-1.18h.57a1,1,0,0,1,.71.21,1,1,0,0,1,.21.71v5a.29.29,0,0,0,.33.33h1.31c.23,0,.35-.11.35-.33V91Q156.8,88.42,154.34,88.42Z"/><path class="cls-2" d="M164.49,88.42h-3.61a2.61,2.61,0,0,0-1.91.66A2.52,2.52,0,0,0,158.3,91v2.52a2.64,2.64,0,0,0,.62,1.9,2.39,2.39,0,0,0,1.82.65h.51a2,2,0,0,0,.93-.22,1.23,1.23,0,0,0,.61-.64h.06v1.19a1,1,0,0,1-.21.7,1,1,0,0,1-.71.21h-2.68a.29.29,0,0,0-.33.33v1.08a.38.38,0,0,0,.07.24.37.37,0,0,0,.26.07h3a2.63,2.63,0,0,0,1.9-.66,2.49,2.49,0,0,0,.68-1.87V88.75C164.84,88.53,164.72,88.42,164.49,88.42Zm-1.64,4.71c0,.79-.36,1.18-1.08,1.18h-.58a.77.77,0,0,1-.91-.91V91.07a1,1,0,0,1,.21-.71.94.94,0,0,1,.7-.21h1.47c.13,0,.19,0,.19.17Z"/><path class="cls-2" d="M174.54,86.34h-2.08a.45.45,0,0,0-.47.33l-2.48,9.4c-.06.22,0,.33.19.33h1.5a.3.3,0,0,0,.23-.07.42.42,0,0,0,.1-.26l.44-1.72H175l.44,1.72a.51.51,0,0,0,.09.26.3.3,0,0,0,.24.07h1.5c.19,0,.25-.11.19-.33L175,86.67A.43.43,0,0,0,174.54,86.34Zm-2.19,6.42,1.12-4.52h.06l1.13,4.52Z"/><path class="cls-2" d="M182.72,92.19l-1.58-.93c-.45-.24-.67-.48-.67-.71v-.08c0-.26.25-.39.76-.39h2.18a.34.34,0,0,0,.25-.07.37.37,0,0,0,.06-.24v-1c0-.22-.11-.33-.31-.33h-2.62a2.68,2.68,0,0,0-1.81.52,2,2,0,0,0-.58,1.61,1.9,1.9,0,0,0,.38,1.21,3.56,3.56,0,0,0,1.17.87l1.55.86c.43.23.64.47.64.72v.08c0,.31-.26.47-.77.47h-2.61c-.13,0-.21,0-.25.07a.38.38,0,0,0-.06.24v1c0,.22.1.33.31.33h3c1.64,0,2.46-.7,2.46-2.09a2.07,2.07,0,0,0-.33-1.22A3.53,3.53,0,0,0,182.72,92.19Z"/><path class="cls-2" d="M189.57,92.19,188,91.26c-.45-.24-.67-.48-.67-.71v-.08c0-.26.25-.39.76-.39h2.18a.33.33,0,0,0,.25-.07.37.37,0,0,0,.06-.24v-1c0-.22-.1-.33-.31-.33h-2.61a2.71,2.71,0,0,0-1.82.52,2,2,0,0,0-.58,1.61,1.9,1.9,0,0,0,.38,1.21,3.56,3.56,0,0,0,1.17.87l1.55.86c.43.23.64.47.64.72v.08c0,.31-.26.47-.77.47h-2.61a.33.33,0,0,0-.25.07.38.38,0,0,0-.06.24v1c0,.22.1.33.31.33h3c1.64,0,2.46-.7,2.46-2.09a2.07,2.07,0,0,0-.33-1.22A3.53,3.53,0,0,0,189.57,92.19Z"/><path class="cls-2" d="M196.23,88.42h-1.39a2.62,2.62,0,0,0-1.91.66,2.52,2.52,0,0,0-.67,1.89v2.88a2.53,2.53,0,0,0,.67,1.9,2.66,2.66,0,0,0,1.91.65h1.39a2.6,2.6,0,0,0,1.9-.66,2.49,2.49,0,0,0,.69-1.89V91a2.48,2.48,0,0,0-.69-1.88A2.6,2.6,0,0,0,196.23,88.42Zm.63,5.37a.94.94,0,0,1-.21.7,1,1,0,0,1-.71.21h-.8a1,1,0,0,1-.71-.21,1,1,0,0,1-.2-.7V91a.75.75,0,0,1,.91-.91h.8a1,1,0,0,1,.71.2,1,1,0,0,1,.21.71Z"/><path class="cls-2" d="M205.14,88.42H202.8a2.58,2.58,0,0,0-1.9.66,2.53,2.53,0,0,0-.68,1.89v2.88a2.54,2.54,0,0,0,.68,1.9,2.62,2.62,0,0,0,1.9.65h2.34a.33.33,0,0,0,.25-.07.31.31,0,0,0,.07-.24V95a.29.29,0,0,0-.32-.33h-2a1,1,0,0,1-.7-.21,1,1,0,0,1-.21-.71V91.07a1,1,0,0,1,.21-.71,1,1,0,0,1,.7-.21h2a.32.32,0,0,0,.25-.08.3.3,0,0,0,.07-.24V88.75A.29.29,0,0,0,205.14,88.42Z"/><path class="cls-2" d="M208.56,85.41H207.2a.27.27,0,0,0-.31.31v1.36a.27.27,0,0,0,.31.31h1.36a.27.27,0,0,0,.31-.31V85.7C208.87,85.5,208.77,85.41,208.56,85.41Z"/><path class="cls-2" d="M208.55,88.42H207.2c-.21,0-.31.11-.31.33v7.32a.29.29,0,0,0,.33.33h1.34a.35.35,0,0,0,.24-.06s.07-.13.07-.27V88.75A.29.29,0,0,0,208.55,88.42Z"/><path class="cls-2" d="M222.49,94.68h-.63a1,1,0,0,1-.72-.21,1,1,0,0,1-.22-.7V90.32c0-.12.06-.17.19-.17h1.22a.35.35,0,0,0,.26-.08.34.34,0,0,0,.07-.24V88.75a.29.29,0,0,0-.33-.33h-1.22c-.13,0-.19,0-.19-.17V86.77a.29.29,0,0,0-.33-.33h-1.31c-.23,0-.34.11-.34.33v1.48c0,.12-.06.17-.18.17h-.62a.29.29,0,0,0-.33.33v1.08c0,.13,0,.21.07.25a.4.4,0,0,0,.26.07h.62c.12,0,.18,0,.18.17v3.55a2.48,2.48,0,0,0,.68,1.88,2.66,2.66,0,0,0,1.91.65h1a.33.33,0,0,0,.25-.07.31.31,0,0,0,.07-.24V95C222.81,94.79,222.71,94.68,222.49,94.68Z"/><path class="cls-2" d="M225.85,88.42H224.5c-.2,0-.31.11-.31.33v7.32a.29.29,0,0,0,.33.33h1.35a.38.38,0,0,0,.24-.06.4.4,0,0,0,.07-.27V88.75A.29.29,0,0,0,225.85,88.42Z"/><path class="cls-2" d="M225.87,85.41H224.5a.28.28,0,0,0-.31.31v1.36a.28.28,0,0,0,.31.31h1.37a.28.28,0,0,0,.31-.31V85.7C226.18,85.5,226.07,85.41,225.87,85.41Z"/><path class="cls-2" d="M231.79,88.42H230.4a2.62,2.62,0,0,0-1.91.66,2.52,2.52,0,0,0-.67,1.89v2.88a2.53,2.53,0,0,0,.67,1.9,2.66,2.66,0,0,0,1.91.65h1.39a2.64,2.64,0,0,0,1.91-.66,2.53,2.53,0,0,0,.68-1.89V91a2.52,2.52,0,0,0-.68-1.88A2.64,2.64,0,0,0,231.79,88.42Zm.63,5.37a.94.94,0,0,1-.21.7,1,1,0,0,1-.71.21h-.8a.76.76,0,0,1-.91-.91V91a1,1,0,0,1,.2-.71,1,1,0,0,1,.71-.2h.8a1,1,0,0,1,.71.2,1,1,0,0,1,.21.71Z"/><path class="cls-2" d="M240,88.42h-.5a1.47,1.47,0,0,0-1.53.85h-.06v-.52a.29.29,0,0,0-.33-.33h-1.33a.29.29,0,0,0-.33.33v7.32a.29.29,0,0,0,.33.33h1.33a.29.29,0,0,0,.33-.33V91.33c0-.79.36-1.18,1.08-1.18h.56a1,1,0,0,1,.71.21,1,1,0,0,1,.21.71v5a.29.29,0,0,0,.33.33h1.31c.23,0,.35-.11.35-.33V91Q242.48,88.42,240,88.42Z"/><path class="cls-2" d="M12.47,88.42H9.63c-.21,0-.31.11-.31.33v1a.38.38,0,0,0,.06.24.33.33,0,0,0,.25.07H12c.51,0,.84.13.84.39V91h-2A2.62,2.62,0,0,0,9,91.64a2.52,2.52,0,0,0-.67,1.89v.26a2.69,2.69,0,0,0,.67,2,2.66,2.66,0,0,0,1.91.65h.37a2.11,2.11,0,0,0,.93-.21,1.21,1.21,0,0,0,.61-.63h.06v.51a.29.29,0,0,0,.33.33h1.31c.23,0,.35-.11.35-.65v-5.2a2.07,2.07,0,0,0-.58-1.61A2.71,2.71,0,0,0,12.47,88.42Zm.41,5.34c0,.79-.36.86-1.08.86h-.58a.94.94,0,0,1-.7-.21,1,1,0,0,1-.21-.72v-.06a1,1,0,0,1,.21-.71.94.94,0,0,1,.7-.21h1.47c.13,0,.19.05.19.17Z"/><path class="cls-2" d="M45.88,88.42H43c-.2,0-.31.11-.31.33v1a.38.38,0,0,0,.06.24.34.34,0,0,0,.25.07h2.41c.51,0,.84.13.84.39V91h-2a2.62,2.62,0,0,0-1.91.66,2.52,2.52,0,0,0-.67,1.89v.26a2.69,2.69,0,0,0,.67,2,2.66,2.66,0,0,0,1.91.65h.38a2.1,2.1,0,0,0,.92-.21,1.17,1.17,0,0,0,.61-.63h.06v.51a.29.29,0,0,0,.33.33h1.32c.22,0,.34-.11.34-.65v-5.2a2,2,0,0,0-.58-1.61A2.68,2.68,0,0,0,45.88,88.42Zm.4,5.34c0,.79-.36.86-1.08.86h-.58a1,1,0,0,1-.7-.21,1,1,0,0,1-.2-.72v-.06a1,1,0,0,1,.2-.71,1,1,0,0,1,.7-.21h1.47c.13,0,.19.05.19.17Z"/><path class="cls-2" d="M127.67,88.42h-2.84a.29.29,0,0,0-.32.33v1a.33.33,0,0,0,.07.24s.12.07.25.07h2.4c.51,0,.84.13.84.39V91h-2a2.62,2.62,0,0,0-1.91.66,2.52,2.52,0,0,0-.67,1.89v.26a2.69,2.69,0,0,0,.67,2,2.66,2.66,0,0,0,1.91.65h.38a2.1,2.1,0,0,0,.92-.21,1.17,1.17,0,0,0,.61-.63h.06v.51a.29.29,0,0,0,.33.33h1.32c.23,0,.34-.11.34-.65v-5.2a2,2,0,0,0-.58-1.61A2.68,2.68,0,0,0,127.67,88.42Zm.4,5.34c0,.79-.36.86-1.08.86h-.57a1,1,0,0,1-.71-.21,1.05,1.05,0,0,1-.2-.72v-.06a1,1,0,0,1,.2-.71,1,1,0,0,1,.71-.21h1.47c.12,0,.18.05.18.17Z"/><path class="cls-2" d="M214.48,88.42h-2.84a.29.29,0,0,0-.32.33v1a.33.33,0,0,0,.07.24s.12.07.25.07H214c.51,0,.84.13.84.39V91h-2a2.62,2.62,0,0,0-1.91.66,2.56,2.56,0,0,0-.67,1.89v.26a2.74,2.74,0,0,0,.67,2,2.66,2.66,0,0,0,1.91.65h.38a2.1,2.1,0,0,0,.92-.21,1.17,1.17,0,0,0,.61-.63h.06v.51a.29.29,0,0,0,.33.33h1.32c.23,0,.34-.11.34-.65v-5.2a2,2,0,0,0-.58-1.61A2.68,2.68,0,0,0,214.48,88.42Zm.4,5.34c0,.79-.36.86-1.08.86h-.57a1,1,0,0,1-.71-.21,1.05,1.05,0,0,1-.2-.72v-.06a1,1,0,0,1,.2-.71,1,1,0,0,1,.71-.21h1.47c.12,0,.18.05.18.17Z"/></g></g></svg>